<?xml version="1.0" encoding="UTF-8" standalone="no"?>
<!DOCTYPE svg PUBLIC "-//W3C//DTD SVG 1.1//EN" "http://www.w3.org/Graphics/SVG/1.1/DTD/svg11.dtd">
<svg width="100%" height="100%" viewBox="0 0 187 235" version="1.1" xmlns="http://www.w3.org/2000/svg" xmlns:xlink="http://www.w3.org/1999/xlink" xml:space="preserve" xmlns:serif="http://www.serif.com/" style="fill-rule:evenodd;clip-rule:evenodd;stroke-linejoin:round;stroke-miterlimit:2;">
    <g id="Page-1" opacity="0.2">
        <g transform="matrix(1,0,0,1,-2,0)">
            <g id="Error1">
                <g id="NothingFound">
                    <g id="Group">
                        <g id="Group-26">
                            <path id="Fill-7" d="M46.709,53.361L46.709,65.153C49.583,65.834 68.843,69.461 94.316,69.461C108.215,69.461 123.967,68.381 139.914,65.153L139.914,53.361C156.894,56.304 165.614,60.478 165.614,63.236C165.614,67.893 140.783,76.578 93.311,76.578C45.84,76.578 21.008,67.893 21.008,63.236C21.008,60.478 29.729,56.304 46.709,53.361M93.311,5.43C116.183,5.43 134.791,23.994 134.791,46.811L134.791,60.927C122.148,63.199 108.555,64.349 94.316,64.349C75.156,64.349 59.301,62.241 51.832,60.949L51.832,46.811C51.832,23.994 70.439,5.43 93.311,5.43M93.311,107.174C57.849,107.174 28.291,91.576 22.185,71.078C35.892,78.728 69.164,81.689 93.311,81.689C117.459,81.689 150.729,78.728 164.438,71.078C158.332,91.576 128.772,107.174 93.311,107.174M93.311,112.285C136.004,112.285 170.737,90.282 170.737,63.236C170.737,55.926 157.232,51.135 139.914,48.269L139.914,46.811C139.914,21.134 119.048,0.318 93.311,0.318C67.573,0.318 46.709,21.134 46.709,46.811L46.709,48.269C29.391,51.135 15.884,55.926 15.884,63.236C15.884,90.282 50.618,112.285 93.311,112.285" style="fill:rgb(80,90,103);"/>
                            <path id="Fill-9" d="M93.311,86.183C90.24,86.183 87.748,88.667 87.748,91.733C87.748,94.797 90.24,97.282 93.311,97.282C96.382,97.282 98.874,94.797 98.874,91.733C98.874,88.667 96.382,86.183 93.311,86.183" style="fill:rgb(80,90,103);"/>
                            <path id="Fill-11" d="M130.79,83.755C128.168,83.755 126.042,85.877 126.042,88.492C126.042,91.108 128.168,93.229 130.79,93.229C133.412,93.229 135.538,91.108 135.538,88.492C135.538,85.877 133.412,83.755 130.79,83.755" style="fill:rgb(80,90,103);"/>
                            <path id="Fill-13" d="M55.832,83.755C53.21,83.755 51.084,85.877 51.084,88.492C51.084,91.108 53.21,93.229 55.832,93.229C58.454,93.229 60.58,91.108 60.58,88.492C60.58,85.877 58.454,83.755 55.832,83.755" style="fill:rgb(80,90,103);"/>
                            <path id="Fill-15" d="M62.107,49.492L63.918,51.299L87.138,28.134L85.327,26.327L62.107,49.492Z" style="fill:rgb(80,90,103);"/>
                            <path id="Fill-17" d="M86.748,37.381L84.937,35.574L76.804,43.688L78.615,45.495L86.748,37.381Z" style="fill:rgb(80,90,103);"/>
                            <path id="Fill-21" d="M93.969,229.225L96.531,229.225L96.531,119.225L93.969,119.225L93.969,229.225Z" style="fill:rgb(80,90,103);"/>
                            <path id="Fill-24" d="M62.79,115.999L61.648,115.418L60.508,114.836L2.001,229.062L3.14,229.643L4.282,230.225L62.79,115.999Z" style="fill:rgb(80,90,103);"/>
                            <path id="Fill-25" d="M188.837,228.53L127.994,115.071L126.864,115.674L125.735,116.276L186.577,229.735L187.707,229.133L188.837,228.53Z" style="fill:rgb(80,90,103);"/>
                        </g>
                    </g>
                </g>
            </g>
        </g>
    </g>
</svg>
